# xmcd
# 
# Track frame offsets:
#     150
#     18025
#     40380
#     61777
#     81737
#     110740
#     131670
#     148127
#     171075
#     183687
#     200277
#     216867
# 
# Disc length: 3213
# 
# Revision: 8
# Processed by: cddbd v1.5.2PL0 Copyright (c) Steve Scherf et al.
# Submitted via: fre:ac v1.0.17
# 
DISCID=b10c8b0c,b40c8b0c
DTITLE=Aynsley Lister - Aynsley Lister
DYEAR=1999
DGENRE=Blues Rock
TTITLE0=Got It Bad
TTITLE1=Angel ´o´ Mine
TTITLE2=Without You
TTITLE3=She's A Woman
TTITLE4=Eddie Boyd - Five Long Years
TTITLE5=Won't Take U Back
TTITLE6=Soundman
TTITLE7=Need Her So Bad
TTITLE8=Gary Moore - Since I Met You Baby
TTITLE9=I Believe
TTITLE10=Bob Dylan - All Along The Watchtower
TTITLE11=Identity Blues
EXTD=
EXTT0=
EXTT1=
EXTT2=
EXTT3=
EXTT4=
EXTT5=
EXTT6=
EXTT7=
EXTT8=
EXTT9=
EXTT10=
EXTT11=
PLAYORDER=
